HIERARCHY
ROOT Hips
{
 OFFSET 0.000000 0.000000 0.000000
 CHANNELS 6 Xposition Yposition Zposition Yrotation Xrotation Zrotation
 JOINT Chest
 {
  OFFSET 0.000000 9.585900 0.002600
  CHANNELS 3 Yrotation Xrotation Zrotation
  JOINT Chest2
  {
   OFFSET 0.000000 9.601200 -0.005300
   CHANNELS 3 Yrotation Xrotation Zrotation
   JOINT Chest3
   {
    OFFSET 0.000000 9.561800 0.000000
    CHANNELS 3 Yrotation Xrotation Zrotation
    JOINT Chest4
    {
     OFFSET 0.000000 9.552100 0.000000
     CHANNELS 3 Yrotation Xrotation Zrotation
     JOINT Neck
     {
      OFFSET 0.000000 14.453000 0.000000
      CHANNELS 3 Yrotation Xrotation Zrotation
      JOINT Head
      {
       OFFSET 0.000000 8.936500 -0.011300
       CHANNELS 3 Yrotation Xrotation Zrotation
       End Site
       {
        OFFSET 0.000000 17.073600 -0.006000
       }
      }
     }
     JOINT RightCollar
     {
      OFFSET -2.921100 9.558500 0.000000
      CHANNELS 3 Yrotation Xrotation Zrotation
      JOINT RightShoulder
      {
       OFFSET -13.519700 0.000000 0.000000
       CHANNELS 3 Yrotation Xrotation Zrotation
       JOINT RightElbow
       {
        OFFSET 0.000000 -29.696600 0.000000
        CHANNELS 3 Yrotation Xrotation Zrotation
        JOINT RightWrist
        {
         OFFSET 0.000000 -24.004700 0.000000
         CHANNELS 3 Yrotation Xrotation Zrotation
         End Site
         {
          OFFSET 0.000000 -17.728500 0.000000
         }
        }
       }
      }
     }
     JOINT LeftCollar
     {
      OFFSET 2.921100 9.558500 0.000000
      CHANNELS 3 Yrotation Xrotation Zrotation
      JOINT LeftShoulder
      {
       OFFSET 13.519700 0.000000 0.000000
       CHANNELS 3 Yrotation Xrotation Zrotation
       JOINT LeftElbow
       {
        OFFSET 0.000000 -29.696600 0.000000
        CHANNELS 3 Yrotation Xrotation Zrotation
        JOINT LeftWrist
        {
         OFFSET 0.000000 -24.004700 0.000000
         CHANNELS 3 Yrotation Xrotation Zrotation
         End Site
         {
          OFFSET 0.000000 -17.728500 0.000000
         }
        }
       }
      }
     }
    }
   }
  }
 }
 JOINT RightHip
 {
  OFFSET -7.771700 -0.012900 -0.001300
  CHANNELS 3 Yrotation Xrotation Zrotation
  JOINT RightKnee
  {
   OFFSET 0.000000 -40.869800 0.001200
   CHANNELS 3 Yrotation Xrotation Zrotation
   JOINT RightAnkle
   {
    OFFSET 0.000000 -39.717900 0.002100
    CHANNELS 3 Yrotation Xrotation Zrotation
    JOINT RightToe
    {
     OFFSET 0.000000 -4.965400 11.033500
     CHANNELS 3 Yrotation Xrotation Zrotation
     End Site
     {
      OFFSET 0.000000 -1.423100 5.872300
     }
    }
   }
  }
 }
 JOINT LeftHip
 {
  OFFSET 7.771700 -0.012900 -0.001300
  CHANNELS 3 Yrotation Xrotation Zrotation
  JOINT LeftKnee
  {
   OFFSET 0.000000 -40.869800 0.001200
   CHANNELS 3 Yrotation Xrotation Zrotation
   JOINT LeftAnkle
   {
    OFFSET 0.000000 -39.717900 0.002100
    CHANNELS 3 Yrotation Xrotation Zrotation
    JOINT LeftToe
    {
     OFFSET 0.000000 -4.965400 11.033500
     CHANNELS 3 Yrotation Xrotation Zrotation
     End Site
     {
      OFFSET 0.000000 -1.423100 5.872300
     }
    }
   }
  }
 }
}
MOTION
Frames: 9
Frame Time: 0.008333
-65.091252 63.194430 12.606920 165.010140 -51.406691 -2.676798 7.625668 26.218829 4.141978 1.191225 4.577023 0.254789 1.891680 7.238542 0.454542 5.994893 21.406019 2.145382 1.994660 15.642531 0.825622 3.418049 -6.743383 0.815024 5.884801 5.777576 6.001155 0.606684 -11.364361 -15.115150 -88.672740 -57.772826 129.994667 9.122320 4.909655 -1.458711 -10.548174 2.563637 -0.204987 -4.889379 -8.208237 18.523635 102.317849 -69.478308 -133.155679 5.875285 -5.471835 -6.038741 -5.508580 -9.029661 8.891867 -27.856091 74.224561 -25.231577 1.875114 -13.070743 -2.535225 -0.406958 0.729040 -0.173178 -5.137657 -15.848957 -0.476978 12.764587 63.972152 6.241636 -2.198658 -10.317173 -0.145941 -0.369562 -0.631661 -0.167396
-65.093669 63.195273 12.605595 165.017755 -51.413782 -2.677953 7.621798 26.225532 4.134804 1.191998 4.579703 0.257026 1.889994 7.238021 0.454918 5.996008 21.414868 2.135966 1.997624 15.643460 0.828513 3.430575 -6.724838 0.819044 5.890840 5.769305 6.010206 0.628681 -11.352861 -15.139240 -88.700899 -57.759435 130.011449 9.120471 4.906892 -1.470817 -10.551752 2.564973 -0.200147 -4.872902 -8.216266 18.526600 102.303965 -69.476250 -133.157654 5.893410 -5.443126 -6.036285 -5.501430 -9.023806 8.892557 -27.889451 74.219518 -25.259319 1.857591 -13.070832 -2.534762 -0.392595 0.728571 -0.168714 -5.137589 -15.840827 -0.480649 12.789686 63.971675 6.255711 -2.201887 -10.314617 -0.133934 -0.374904 -0.636243 -0.170634
-65.097072 63.195889 12.603825 165.030975 -51.418689 -2.676385 7.623539 26.238862 4.124334 1.183266 4.574774 0.260475 1.894440 7.244215 0.452099 5.999418 21.438046 2.122071 2.000074 15.624500 0.842890 3.433009 -6.720464 0.827543 5.911816 5.747921 6.022732 0.611739 -11.364038 -15.142010 -88.685909 -57.758538 129.989995 9.123252 4.901210 -1.468909 -10.565398 2.541902 -0.180824 -4.859092 -8.219523 18.528965 102.275720 -69.471274 -133.141140 5.887050 -5.437004 -6.032306 -5.505600 -9.020067 8.882505 -27.908698 74.218669 -25.281915 1.857193 -13.071229 -2.537564 -0.393016 0.727153 -0.163748 -5.125036 -15.834783 -0.498916 12.784209 63.970097 6.261165 -2.202087 -10.315013 -0.129005 -0.375593 -0.636534 -0.171162
-65.099883 63.196121 12.602339 165.051708 -51.419441 -2.683854 7.608628 26.242771 4.114743 1.188728 4.581771 0.256628 1.900919 7.262982 0.445521 5.995235 21.429632 2.125302 2.002199 15.622455 0.845974 3.436810 -6.716836 0.834673 5.934659 5.742112 6.026300 0.590473 -11.380605 -15.139936 -88.599248 -57.771346 129.920712 9.120431 4.888946 -1.482106 -10.577733 2.539556 -0.186868 -4.838930 -8.220643 18.534449 102.283097 -69.467207 -133.162716 5.878391 -5.426872 -6.029332 -5.513073 -9.020144 8.878632 -27.928557 74.217894 -25.305744 1.852068 -13.070201 -2.536401 -0.392064 0.724281 -0.161050 -5.120286 -15.833930 -0.511513 12.782133 63.970726 6.266681 -2.201500 -10.316452 -0.123876 -0.381774 -0.636588 -0.171310
-65.102509 63.197000 12.600174 165.072318 -51.424626 -2.690778 7.597762 26.257129 4.103439 1.198081 4.594311 0.252254 1.896233 7.256647 0.449829 5.994723 21.435271 2.123302 2.007365 15.645923 0.844657 3.432750 -6.749986 0.844306 5.950782 5.734163 6.029588 0.578801 -11.388762 -15.140422 -88.588242 -57.769880 129.909909 9.120062 4.887834 -1.491084 -10.587694 2.529189 -0.181184 -4.830957 -8.220008 18.535125 102.250933 -69.465839 -133.137629 5.893719 -5.388007 -6.014734 -5.519480 -9.013940 8.871627 -27.945705 74.216724 -25.324599 1.850607 -13.073988 -2.533574 -0.392422 0.724884 -0.162132 -5.113729 -15.826308 -0.518688 12.781773 63.969574 6.267513 -2.217297 -10.319940 -0.116086 -0.366264 -0.635176 -0.166355
-65.106765 63.198158 12.597138 165.091445 -51.431875 -2.685625 7.587120 26.273545 4.083508 1.198108 4.597262 0.251409 1.896816 7.260568 0.449519 5.990954 21.430789 2.124844 2.010226 15.657686 0.844703 3.430657 -6.759398 0.849510 5.988482 5.754058 6.012076 0.550367 -11.406080 -15.130365 -88.598349 -57.760837 129.914568 9.109359 4.910854 -1.505693 -10.595362 2.530391 -0.180451 -4.826713 -8.222666 18.537223 102.218588 -69.463844 -133.110485 5.899128 -5.358166 -5.993546 -5.522366 -9.008380 8.856589 -27.976690 74.219248 -25.366978 1.856540 -13.081537 -2.516889 -0.403522 0.725748 -0.167234 -5.117569 -15.819120 -0.542693 12.786846 63.968767 6.271646 -2.218237 -10.318129 -0.115777 -0.346273 -0.639373 -0.160452
-65.109500 63.198193 12.595534 165.101775 -51.430149 -2.684763 7.586264 26.278751 4.073588 1.193966 4.596112 0.253474 1.903062 7.268986 0.447709 5.984706 21.425555 2.125700 2.011943 15.659505 0.846782 3.432980 -6.745001 0.855031 6.003538 5.760035 6.004372 0.538442 -11.414436 -15.124393 -88.563078 -57.758676 129.878372 9.112855 4.923976 -1.510550 -10.599220 2.528130 -0.176987 -4.824260 -8.219515 18.535786 102.112141 -69.467892 -133.016746 5.877768 -5.377207 -5.983734 -5.521516 -9.010151 8.850105 -27.989305 74.218017 -25.378233 1.853575 -13.089234 -2.524595 -0.402068 0.731497 -0.157523 -5.115644 -15.819415 -0.548298 12.788938 63.968072 6.271977 -2.237479 -10.320872 -0.117762 -0.343415 -0.637795 -0.153563
-65.111933 63.198445 12.593915 165.114796 -51.429923 -2.688076 7.595804 26.291071 4.069441 1.180622 4.589208 0.257046 1.911501 7.274117 0.447350 5.983600 21.434066 2.124263 2.008760 15.650444 0.852706 3.435054 -6.714331 0.862114 6.010883 5.752570 6.000975 0.526692 -11.422999 -15.114881 -88.523959 -57.762792 129.837597 9.122290 4.929179 -1.510700 -10.609653 2.515492 -0.167523 -4.819865 -8.213182 18.535199 102.075212 -69.475466 -132.985805 5.874825 -5.384513 -5.974989 -5.518659 -9.010338 8.846146 -28.004761 74.215754 -25.388633 1.844438 -13.095168 -2.526743 -0.394457 0.734820 -0.154663 -5.113181 -15.818098 -0.558044 12.782511 63.966744 6.270718 -2.236800 -10.325020 -0.116401 -0.345315 -0.634296 -0.152649
-65.113401 63.198658 12.592743 165.120173 -51.429717 -2.691941 7.597690 26.292307 4.070663 1.188253 4.594429 0.256072 1.910682 7.275352 0.447027 6.004195 21.447829 2.125017 1.995028 15.647572 0.861458 3.425766 -6.721341 0.869820 5.995965 5.736774 6.006843 0.517589 -11.429421 -15.106495 -88.462303 -57.781196 129.773634 9.131472 4.919149 -1.510100 -10.643472 2.515768 -0.152173 -4.813464 -8.220806 18.540281 102.065744 -69.478904 -132.976290 5.889041 -5.371446 -5.967616 -5.509784 -9.010536 8.851649 -28.005892 74.209653 -25.390769 1.840443 -13.094350 -2.517700 -0.399450 0.736848 -0.158861 -5.115837 -15.816722 -0.557048 12.767391 63.967895 6.252488 -2.231001 -10.329295 -0.107967 -0.350531 -0.632103 -0.157315
